<mxfile host="65bd71144e">
    <diagram id="Whu9yl_nzPbtghmXsejI" name="Page-1">
        <mxGraphModel dx="739" dy="438" grid="1" gridSize="10" guides="1" tooltips="1" connect="1" arrows="1" fold="1" page="1" pageScale="1" pageWidth="850" pageHeight="1100" math="0" shadow="0">
            <root>
                <mxCell id="0"/>
                <mxCell id="1" parent="0"/>
                <mxCell id="aDHNyGKMJam1_M0monLK-2" value="Dog is hungry" style="rounded=0;whiteSpace=wrap;html=1;" parent="1" vertex="1">
                    <mxGeometry x="360" y="110" width="120" height="60" as="geometry"/>
                </mxCell>
                <mxCell id="aDHNyGKMJam1_M0monLK-3" value="Nothing there" style="rounded=0;whiteSpace=wrap;html=1;" parent="1" vertex="1">
                    <mxGeometry x="220" y="240" width="120" height="60" as="geometry"/>
                </mxCell>
                <mxCell id="aDHNyGKMJam1_M0monLK-4" value="Check dish" style="endArrow=none;html=1;rounded=0;" parent="1" source="aDHNyGKMJam1_M0monLK-3" target="aDHNyGKMJam1_M0monLK-2" edge="1">
                    <mxGeometry width="50" height="50" relative="1" as="geometry">
                        <mxPoint x="290" y="230" as="sourcePoint"/>
                        <mxPoint x="340" y="180" as="targetPoint"/>
                    </mxGeometry>
                </mxCell>
                <mxCell id="aDHNyGKMJam1_M0monLK-5" value="Fence with hole&lt;br&gt;Gate door is open" style="rounded=0;whiteSpace=wrap;html=1;" parent="1" vertex="1">
                    <mxGeometry x="400" y="240" width="120" height="60" as="geometry"/>
                </mxCell>
                <mxCell id="aDHNyGKMJam1_M0monLK-6" value="Hear door open" style="rounded=0;whiteSpace=wrap;html=1;" parent="1" vertex="1">
                    <mxGeometry x="640" y="240" width="120" height="60" as="geometry"/>
                </mxCell>
                <mxCell id="aDHNyGKMJam1_M0monLK-7" value="go outside" style="endArrow=none;html=1;rounded=0;" parent="1" source="aDHNyGKMJam1_M0monLK-5" target="aDHNyGKMJam1_M0monLK-2" edge="1">
                    <mxGeometry width="50" height="50" relative="1" as="geometry">
                        <mxPoint x="520" y="350" as="sourcePoint"/>
                        <mxPoint x="570" y="300" as="targetPoint"/>
                    </mxGeometry>
                </mxCell>
                <mxCell id="aDHNyGKMJam1_M0monLK-8" value="take a nap" style="endArrow=none;html=1;rounded=0;" parent="1" source="aDHNyGKMJam1_M0monLK-2" target="aDHNyGKMJam1_M0monLK-6" edge="1">
                    <mxGeometry width="50" height="50" relative="1" as="geometry">
                        <mxPoint x="550" y="220" as="sourcePoint"/>
                        <mxPoint x="600" y="170" as="targetPoint"/>
                    </mxGeometry>
                </mxCell>
                <mxCell id="aDHNyGKMJam1_M0monLK-9" value="Kid home form school" style="rounded=0;whiteSpace=wrap;html=1;" parent="1" vertex="1">
                    <mxGeometry x="510" y="340" width="120" height="60" as="geometry"/>
                </mxCell>
                <mxCell id="aDHNyGKMJam1_M0monLK-10" value="Get food" style="rounded=0;whiteSpace=wrap;html=1;" parent="1" vertex="1">
                    <mxGeometry x="640" y="520" width="120" height="60" as="geometry"/>
                </mxCell>
                <mxCell id="aDHNyGKMJam1_M0monLK-11" value="harass for food" style="endArrow=none;html=1;rounded=0;" parent="1" source="aDHNyGKMJam1_M0monLK-10" target="aDHNyGKMJam1_M0monLK-9" edge="1">
                    <mxGeometry width="50" height="50" relative="1" as="geometry">
                        <mxPoint x="640" y="500" as="sourcePoint"/>
                        <mxPoint x="690" y="450" as="targetPoint"/>
                    </mxGeometry>
                </mxCell>
                <mxCell id="aDHNyGKMJam1_M0monLK-12" value="see who it is" style="endArrow=none;html=1;rounded=0;" parent="1" source="aDHNyGKMJam1_M0monLK-9" target="aDHNyGKMJam1_M0monLK-6" edge="1">
                    <mxGeometry width="50" height="50" relative="1" as="geometry">
                        <mxPoint x="520" y="410" as="sourcePoint"/>
                        <mxPoint x="570" y="360" as="targetPoint"/>
                    </mxGeometry>
                </mxCell>
                <mxCell id="aDHNyGKMJam1_M0monLK-13" value="follow nose" style="rounded=0;whiteSpace=wrap;html=1;" parent="1" vertex="1">
                    <mxGeometry x="20" y="240" width="120" height="60" as="geometry"/>
                </mxCell>
                <mxCell id="aDHNyGKMJam1_M0monLK-14" value="search for food" style="endArrow=none;html=1;rounded=0;" parent="1" source="aDHNyGKMJam1_M0monLK-13" target="aDHNyGKMJam1_M0monLK-2" edge="1">
                    <mxGeometry width="50" height="50" relative="1" as="geometry">
                        <mxPoint x="220" y="200" as="sourcePoint"/>
                        <mxPoint x="270" y="150" as="targetPoint"/>
                    </mxGeometry>
                </mxCell>
                <mxCell id="aDHNyGKMJam1_M0monLK-15" value="Neighbors" style="rounded=0;whiteSpace=wrap;html=1;" parent="1" vertex="1">
                    <mxGeometry x="300" y="400" width="120" height="60" as="geometry"/>
                </mxCell>
                <mxCell id="aDHNyGKMJam1_M0monLK-16" value="go through hole" style="endArrow=none;html=1;rounded=0;" parent="1" source="aDHNyGKMJam1_M0monLK-15" target="aDHNyGKMJam1_M0monLK-5" edge="1">
                    <mxGeometry width="50" height="50" relative="1" as="geometry">
                        <mxPoint x="400" y="360" as="sourcePoint"/>
                        <mxPoint x="450" y="310" as="targetPoint"/>
                    </mxGeometry>
                </mxCell>
                <mxCell id="aDHNyGKMJam1_M0monLK-17" value="street" style="rounded=0;whiteSpace=wrap;html=1;" parent="1" vertex="1">
                    <mxGeometry x="470" y="400" width="120" height="60" as="geometry"/>
                </mxCell>
                <mxCell id="aDHNyGKMJam1_M0monLK-18" value="gate door" style="endArrow=none;html=1;rounded=0;" parent="1" source="aDHNyGKMJam1_M0monLK-17" target="aDHNyGKMJam1_M0monLK-5" edge="1">
                    <mxGeometry width="50" height="50" relative="1" as="geometry">
                        <mxPoint x="470" y="390" as="sourcePoint"/>
                        <mxPoint x="520" y="340" as="targetPoint"/>
                    </mxGeometry>
                </mxCell>
                <mxCell id="aDHNyGKMJam1_M0monLK-19" value="over turn trash" style="rounded=0;whiteSpace=wrap;html=1;" parent="1" vertex="1">
                    <mxGeometry x="20" y="400" width="120" height="60" as="geometry"/>
                </mxCell>
                <mxCell id="aDHNyGKMJam1_M0monLK-20" value="left overs on counter" style="rounded=0;whiteSpace=wrap;html=1;" parent="1" vertex="1">
                    <mxGeometry x="160" y="400" width="120" height="60" as="geometry"/>
                </mxCell>
                <mxCell id="aDHNyGKMJam1_M0monLK-21" value="eat trash" style="endArrow=none;html=1;rounded=0;" parent="1" source="aDHNyGKMJam1_M0monLK-19" target="aDHNyGKMJam1_M0monLK-13" edge="1">
                    <mxGeometry width="50" height="50" relative="1" as="geometry">
                        <mxPoint x="50" y="360" as="sourcePoint"/>
                        <mxPoint x="100" y="310" as="targetPoint"/>
                    </mxGeometry>
                </mxCell>
                <mxCell id="aDHNyGKMJam1_M0monLK-22" value="eat counter food" style="endArrow=none;html=1;rounded=0;" parent="1" source="aDHNyGKMJam1_M0monLK-20" target="aDHNyGKMJam1_M0monLK-13" edge="1">
                    <mxGeometry width="50" height="50" relative="1" as="geometry">
                        <mxPoint x="180" y="410" as="sourcePoint"/>
                        <mxPoint x="230" y="360" as="targetPoint"/>
                    </mxGeometry>
                </mxCell>
                <mxCell id="aDHNyGKMJam1_M0monLK-23" value="get sick&lt;br&gt;trip to vet when people get home" style="rounded=0;whiteSpace=wrap;html=1;" parent="1" vertex="1">
                    <mxGeometry x="20" y="560" width="120" height="60" as="geometry"/>
                </mxCell>
                <mxCell id="aDHNyGKMJam1_M0monLK-24" value="look inside" style="endArrow=none;html=1;rounded=0;startArrow=none;" parent="1" source="2" target="aDHNyGKMJam1_M0monLK-19" edge="1">
                    <mxGeometry width="50" height="50" relative="1" as="geometry">
                        <mxPoint x="40" y="540" as="sourcePoint"/>
                        <mxPoint x="90" y="490" as="targetPoint"/>
                    </mxGeometry>
                </mxCell>
                <mxCell id="aDHNyGKMJam1_M0monLK-25" value="little trouble when people get home" style="rounded=0;whiteSpace=wrap;html=1;" parent="1" vertex="1">
                    <mxGeometry x="160" y="620" width="120" height="60" as="geometry"/>
                </mxCell>
                <mxCell id="aDHNyGKMJam1_M0monLK-26" value="eat food" style="endArrow=none;html=1;rounded=0;" parent="1" source="aDHNyGKMJam1_M0monLK-25" target="aDHNyGKMJam1_M0monLK-20" edge="1">
                    <mxGeometry width="50" height="50" relative="1" as="geometry">
                        <mxPoint x="200" y="610" as="sourcePoint"/>
                        <mxPoint x="250" y="560" as="targetPoint"/>
                    </mxGeometry>
                </mxCell>
                <mxCell id="aDHNyGKMJam1_M0monLK-27" value="neighbor is home" style="rounded=0;whiteSpace=wrap;html=1;" parent="1" vertex="1">
                    <mxGeometry x="320" y="560" width="120" height="60" as="geometry"/>
                </mxCell>
                <mxCell id="aDHNyGKMJam1_M0monLK-29" value="get food and trouble later" style="rounded=0;whiteSpace=wrap;html=1;" parent="1" vertex="1">
                    <mxGeometry x="305" y="710" width="120" height="60" as="geometry"/>
                </mxCell>
                <mxCell id="aDHNyGKMJam1_M0monLK-30" value="paw neighbors door" style="endArrow=none;html=1;rounded=0;" parent="1" source="aDHNyGKMJam1_M0monLK-27" target="aDHNyGKMJam1_M0monLK-15" edge="1">
                    <mxGeometry width="50" height="50" relative="1" as="geometry">
                        <mxPoint x="330" y="530" as="sourcePoint"/>
                        <mxPoint x="380" y="480" as="targetPoint"/>
                    </mxGeometry>
                </mxCell>
                <mxCell id="aDHNyGKMJam1_M0monLK-31" value="beg for food" style="endArrow=none;html=1;rounded=0;" parent="1" source="aDHNyGKMJam1_M0monLK-29" target="aDHNyGKMJam1_M0monLK-27" edge="1">
                    <mxGeometry width="50" height="50" relative="1" as="geometry">
                        <mxPoint x="350" y="690" as="sourcePoint"/>
                        <mxPoint x="400" y="640" as="targetPoint"/>
                    </mxGeometry>
                </mxCell>
                <mxCell id="aDHNyGKMJam1_M0monLK-32" value="neighbor catches&amp;nbsp;&lt;br&gt;you" style="rounded=0;whiteSpace=wrap;html=1;" parent="1" vertex="1">
                    <mxGeometry x="460" y="580" width="120" height="60" as="geometry"/>
                </mxCell>
                <mxCell id="aDHNyGKMJam1_M0monLK-33" value="" style="endArrow=none;html=1;rounded=0;" parent="1" source="aDHNyGKMJam1_M0monLK-32" target="aDHNyGKMJam1_M0monLK-15" edge="1">
                    <mxGeometry width="50" height="50" relative="1" as="geometry">
                        <mxPoint x="500" y="580" as="sourcePoint"/>
                        <mxPoint x="550" y="530" as="targetPoint"/>
                    </mxGeometry>
                </mxCell>
                <mxCell id="aDHNyGKMJam1_M0monLK-34" value="beg for food" style="endArrow=none;html=1;rounded=0;" parent="1" source="aDHNyGKMJam1_M0monLK-29" target="aDHNyGKMJam1_M0monLK-32" edge="1">
                    <mxGeometry width="50" height="50" relative="1" as="geometry">
                        <mxPoint x="510" y="740" as="sourcePoint"/>
                        <mxPoint x="560" y="690" as="targetPoint"/>
                    </mxGeometry>
                </mxCell>
                <mxCell id="aDHNyGKMJam1_M0monLK-35" value="go down street" style="endArrow=none;html=1;rounded=0;" parent="1" source="aDHNyGKMJam1_M0monLK-36" target="aDHNyGKMJam1_M0monLK-17" edge="1">
                    <mxGeometry width="50" height="50" relative="1" as="geometry">
                        <mxPoint x="640" y="640" as="sourcePoint"/>
                        <mxPoint x="650" y="650" as="targetPoint"/>
                    </mxGeometry>
                </mxCell>
                <mxCell id="aDHNyGKMJam1_M0monLK-36" value="deli owner recognizes you" style="rounded=0;whiteSpace=wrap;html=1;" parent="1" vertex="1">
                    <mxGeometry x="590" y="640" width="120" height="60" as="geometry"/>
                </mxCell>
                <mxCell id="aDHNyGKMJam1_M0monLK-37" value="get food and trouble later" style="rounded=0;whiteSpace=wrap;html=1;" parent="1" vertex="1">
                    <mxGeometry x="540" y="780" width="120" height="60" as="geometry"/>
                </mxCell>
                <mxCell id="aDHNyGKMJam1_M0monLK-38" value="" style="endArrow=none;html=1;rounded=0;" parent="1" source="aDHNyGKMJam1_M0monLK-37" target="aDHNyGKMJam1_M0monLK-36" edge="1">
                    <mxGeometry width="50" height="50" relative="1" as="geometry">
                        <mxPoint x="600" y="740" as="sourcePoint"/>
                        <mxPoint x="650" y="690" as="targetPoint"/>
                    </mxGeometry>
                </mxCell>
                <mxCell id="2" value="there is food here" style="rounded=0;whiteSpace=wrap;html=1;" vertex="1" parent="1">
                    <mxGeometry x="40" y="480" width="120" height="60" as="geometry"/>
                </mxCell>
                <mxCell id="3" value="eat" style="endArrow=none;html=1;rounded=0;" edge="1" parent="1" source="aDHNyGKMJam1_M0monLK-23" target="2">
                    <mxGeometry width="50" height="50" relative="1" as="geometry">
                        <mxPoint x="80" y="560" as="sourcePoint"/>
                        <mxPoint x="80" y="460" as="targetPoint"/>
                    </mxGeometry>
                </mxCell>
            </root>
        </mxGraphModel>
    </diagram>
</mxfile>